<svg viewBox="0 0 579.2 104.76" xmlns="http://www.w3.org/2000/svg"><path d="m269.51 67.45h2.3v-13.85h-2.3v-2.67h8.29a13.21 13.21 0 0 1 4 .46c3.72 1.1 6.2 4.4 6.2 9.12 0 4.54-2.29 7.8-5.94 9a12.32 12.32 0 0 1 -4.23.56h-8.32zm8.16-.19a8.11 8.11 0 0 0 3.13-.49c2.18-.89 3.56-3.13 3.56-6.26s-1.46-5.45-3.7-6.31a7.7 7.7 0 0 0 -3-.44h-2.33v13.5z"/><path d="m296.92 56c4 0 6.12 2.89 6.12 6.54 0 .4-.08 1.16-.08 1.16h-9.53a4 4 0 0 0 4.13 3.83 7 7 0 0 0 4-1.46l1.32 2.43a8.73 8.73 0 0 1 -5.56 1.92 7.06 7.06 0 0 1 -7.4-7.21c0-4.21 2.87-7.21 7-7.21zm2.59 5.67c-.06-1.89-1.22-3-2.67-3a3.36 3.36 0 0 0 -3.33 3z"/><path d="m306.69 72.93v-13.44a.54.54 0 0 0 -.59-.6h-1.54v-2.56h3.53c1.27 0 1.71.59 1.71 1.29v.08.63h.05a4.92 4.92 0 0 1 4.4-2.33c3.72 0 6.1 3 6.1 7.21s-2.67 7.21-6.29 7.21a4.8 4.8 0 0 1 -4-2 8.16 8.16 0 0 1 .08 1.19v3.27h2v2.56h-7.43v-2.51zm6.75-5.4c1.89 0 3.45-1.54 3.45-4.27s-1.4-4.26-3.42-4.26c-1.79 0-3.46 1.29-3.46 4.34-.01 2.08 1.19 4.19 3.43 4.19z"/><path d="m329.56 61.59h.86v-.46c0-1.75-1.1-2.37-2.54-2.37a7.57 7.57 0 0 0 -3.88 1.32l-1.27-2.38a9.35 9.35 0 0 1 5.45-1.7c3.7 0 5.67 1.92 5.67 5.43v5.51a.53.53 0 0 0 .59.59h1.25v2.56h-3.24c-1.27 0-1.76-.67-1.76-1.45v-.17a2.7 2.7 0 0 1 .08-.7 4.79 4.79 0 0 1 -4.35 2.65c-2.34 0-4.56-1.38-4.56-4.19-.05-4.23 5.49-4.64 7.7-4.64zm-2.3 6.26c1.87 0 3.19-2 3.19-3.72v-.46h-.57c-1.35 0-4.61.22-4.61 2.29a1.85 1.85 0 0 0 1.99 1.89z"/><path d="m337.28 67.53h2v-8a.54.54 0 0 0 -.59-.6h-1.54v-2.6h3.59c1.21 0 1.83.51 1.83 1.67v.81a6.72 6.72 0 0 1 -.05.86h.05a4.74 4.74 0 0 1 4.43-3.53 4.28 4.28 0 0 1 .62 0v3.38a5.5 5.5 0 0 0 -.84-.06c-2.78 0-4 2.43-4 5v3h2v2.56h-7.4z"/><path d="m350.43 58.89h-2.1v-2.56h2.21v-3.75h3.32v3.75h3.14v2.56h-3.13v5.81a2.48 2.48 0 0 0 2.75 2.67 5.53 5.53 0 0 0 .62 0v2.81a6.34 6.34 0 0 1 -1.05.08c-1.94 0-5.75-.57-5.75-5.18z"/><path d="m359 67.53h2v-8.07a.52.52 0 0 0 -.59-.57h-1.54v-2.56h3.59c1.21 0 1.81.56 1.81 1.54v.62a3.47 3.47 0 0 1 -.06.59h.06a5.54 5.54 0 0 1 4.73-3.08 3.62 3.62 0 0 1 3.84 3h.05a5.37 5.37 0 0 1 4.78-3c2.78 0 4.43 1.62 4.43 5.24v6.29h2v2.56h-5.42v-8.2c0-1.57-.3-2.76-1.89-2.76-2.35 0-3.51 2.35-3.51 4.89v3.51h2v2.56h-5.4v-8.2c0-1.49-.24-2.76-1.86-2.76-2.43 0-3.54 2.57-3.54 5.05v3.35h2v2.56h-7.48z"/><path d="m392.39 56c4 0 6.12 2.89 6.12 6.54 0 .4-.08 1.16-.08 1.16h-9.53a4 4 0 0 0 4.1 3.83 6.94 6.94 0 0 0 4-1.46l1.32 2.43a8.73 8.73 0 0 1 -5.56 1.92 7 7 0 0 1 -7.39-7.21c.03-4.21 2.89-7.21 7.02-7.21zm2.61 5.67c-.06-1.89-1.22-3-2.67-3a3.34 3.34 0 0 0 -3.32 3z"/><path d="m400.49 67.53h2v-8a.55.55 0 0 0 -.6-.6h-1.54v-2.6h3.65c1.22 0 1.78.56 1.78 1.54v.62a4.14 4.14 0 0 1 -.05.59h.05a5.53 5.53 0 0 1 5.05-3.08c2.94 0 4.61 1.6 4.61 5.24v6.29h2v2.56h-5.44v-8.15c0-1.67-.46-2.81-2.18-2.81-2.49 0-3.95 2.38-3.95 4.78v3.62h2v2.56h-7.39z"/><path d="m420.44 58.89h-2.1v-2.56h2.21v-3.75h3.32v3.75h3.13v2.56h-3.13v5.81a2.48 2.48 0 0 0 2.75 2.67 5.53 5.53 0 0 0 .62 0v2.81a6.34 6.34 0 0 1 -1.05.08c-1.94 0-5.75-.57-5.75-5.18z"/><path d="m442.77 56a7.22 7.22 0 1 1 0 14.42c-4.21 0-7.59-3-7.59-7.21a7.25 7.25 0 0 1 7.59-7.21zm0 11.5a4.29 4.29 0 1 0 -4.11-4.29 4.08 4.08 0 0 0 4.14 4.29z"/><path d="m452.25 67.53h2v-8.64h-2.14v-2.56h2.14v-.62c0-4.46 3.56-5 5.39-5a9.5 9.5 0 0 1 1.41.1v2.76a5.31 5.31 0 0 0 -1.06-.08 2 2 0 0 0 -2.32 2.16v.7h3.11v2.56h-3.11v8.64h2.33v2.56h-7.74z"/><path d="m269.54 96.45h2.29v-13.69h-2.29v-2.83h8.15v2.83h-2.32v13.5h5.63v-3h3v5.8h-14.46z"/><path d="m293 90.59h.87v-.46c0-1.75-1.11-2.37-2.54-2.37a7.62 7.62 0 0 0 -3.89 1.32l-1.27-2.38a9.4 9.4 0 0 1 5.43-1.7c3.7 0 5.67 1.92 5.67 5.43v5.51a.52.52 0 0 0 .59.59h1.24v2.56h-3.24c-1.27 0-1.75-.67-1.75-1.45v-.17a2.7 2.7 0 0 1 .08-.7h-.06a4.79 4.79 0 0 1 -4.34 2.65c-2.35 0-4.56-1.38-4.56-4.19 0-4.23 5.53-4.64 7.77-4.64zm-2.29 6.26c1.86 0 3.19-2 3.19-3.72v-.46h-.57c-1.35 0-4.62.22-4.62 2.29a1.86 1.86 0 0 0 1.97 1.89z"/><path d="m301.59 82.49h-2.11v-2.56h5.52v6a10.35 10.35 0 0 1 -.06 1.16h.06a4.88 4.88 0 0 1 4.13-2c3.72 0 6.12 3 6.12 7.21s-2.7 7.21-6.34 7.21a4.54 4.54 0 0 1 -4.1-2.19h-.06a9.57 9.57 0 0 1 .06 1v.83h-3.24zm6.75 14c1.89 0 3.48-1.54 3.48-4.27s-1.4-4.22-3.43-4.22c-1.78 0-3.45 1.29-3.45 4.34 0 2.08 1.06 4.19 3.4 4.19z"/><path d="m324.46 85a7.22 7.22 0 1 1 0 14.42c-4.21 0-7.58-3-7.58-7.21a7.24 7.24 0 0 1 7.58-7.21zm0 11.5a4.29 4.29 0 1 0 -4.1-4.29 4.09 4.09 0 0 0 4.12 4.29z"/><path d="m333.93 96.53h2v-8a.54.54 0 0 0 -.59-.6h-1.54v-2.6h3.59c1.21 0 1.83.51 1.83 1.67v.81a6.72 6.72 0 0 1 -.05.86h.05a4.74 4.74 0 0 1 4.38-3.53 4.28 4.28 0 0 1 .62 0v3.38a5.5 5.5 0 0 0 -.84-.06c-2.78 0-4 2.43-4 5v3h2v2.56h-7.4z"/><path d="m359.42 90.59h.86v-.46c0-1.75-1.1-2.37-2.53-2.37a7.62 7.62 0 0 0 -3.89 1.32l-1.27-2.38a9.35 9.35 0 0 1 5.41-1.7c3.7 0 5.67 1.92 5.67 5.43v5.51a.53.53 0 0 0 .6.59h1.24v2.56h-3.24c-1.27 0-1.76-.67-1.76-1.45v-.17a2.7 2.7 0 0 1 .08-.7h-.05a4.79 4.79 0 0 1 -4.34 2.65c-2.35 0-4.57-1.38-4.57-4.19.04-4.23 5.58-4.64 7.79-4.64zm-2.29 6.26c1.86 0 3.18-2 3.18-3.72v-.46h-.57c-1.35 0-4.61.22-4.61 2.29a1.86 1.86 0 0 0 2 1.89z"/><path d="m367.14 96.53h2v-8a.54.54 0 0 0 -.59-.6h-1.55v-2.6h3.62c1.21 0 1.78.56 1.78 1.54v.62a3.47 3.47 0 0 1 -.06.59h.06a5.52 5.52 0 0 1 5.08-3.08c2.94 0 4.62 1.6 4.62 5.24v6.29h2v2.56h-5.4v-8.15c0-1.67-.46-2.81-2.19-2.81-2.48 0-3.94 2.38-3.94 4.78v3.62h2v2.56h-7.4z"/><path d="m391.71 85a4.38 4.38 0 0 1 4 2h.05a8.88 8.88 0 0 1 -.05-1v-3.51h-2.13v-2.56h5.53v16a.53.53 0 0 0 .59.59h1.25v2.56h-3.24c-1.24 0-1.76-.67-1.76-1.45v-.17a2.23 2.23 0 0 1 .08-.62h-.03a4.76 4.76 0 0 1 -4.51 2.57c-3.67 0-6-2.94-6-7.21s2.51-7.2 6.22-7.2zm.57 11.53c1.81 0 3.48-1.3 3.48-4.24 0-2.24-1.11-4.34-3.37-4.34-1.95 0-3.51 1.53-3.51 4.26s1.4 4.32 3.4 4.32z"/><path d="m409.32 96.45h2.29v-13.85h-2.29v-2.67h14.22v4.94h-3v-2.11h-5.37v5.24h6.31v2.83h-6.31v5.4h5.77v-2.13h3v5h-14.62z"/><path d="m426.22 96.53h2v-8.07a.53.53 0 0 0 -.6-.57h-1.53v-2.56h3.58c1.22 0 1.81.56 1.81 1.54v.62a4.14 4.14 0 0 1 -.05.59h.05a5.54 5.54 0 0 1 4.7-3.08 3.61 3.61 0 0 1 3.82 3h.06a5.35 5.35 0 0 1 4.77-3c2.79 0 4.43 1.62 4.43 5.24v6.29h2v2.56h-5.43v-8.2c0-1.57-.29-2.76-1.89-2.76-2.34 0-3.51 2.35-3.51 4.89v3.51h2v2.56h-5.43v-8.2c0-1.49-.24-2.76-1.86-2.76-2.43 0-3.54 2.57-3.54 5.05v3.35h2v2.56h-7.4z"/><path d="m454.54 101.93v-13.44a.54.54 0 0 0 -.59-.6h-1.54v-2.56h3.59c1.26 0 1.7.59 1.7 1.29v.08.63h.05a4.92 4.92 0 0 1 4.35-2.33c3.73 0 6.1 3 6.1 7.21s-2.67 7.21-6.29 7.21a4.8 4.8 0 0 1 -4-2h-.05a8.16 8.16 0 0 1 .08 1.19v3.27h2v2.56h-7.42v-2.56zm6.75-5.4c1.89 0 3.46-1.54 3.46-4.27s-1.41-4.26-3.43-4.26c-1.78 0-3.46 1.29-3.46 4.34 0 2.08 1.19 4.19 3.43 4.19z"/><path d="m470.93 82.49h-2.13v-2.56h5.53v14.57c0 1.25.27 1.89 1.41 1.89h.64v2.75a9.8 9.8 0 0 1 -1.24.08c-2.18 0-4.21-.73-4.21-4.48z"/><path d="m485.43 85a7.22 7.22 0 1 1 0 14.42c-4.22 0-7.59-3-7.59-7.21a7.24 7.24 0 0 1 7.59-7.21zm0 11.5a4.29 4.29 0 1 0 -4.11-4.29 4.08 4.08 0 0 0 4.14 4.29z"/><path d="m497.5 102a2.57 2.57 0 0 0 2.43-1.6l.38-.86-4.73-11.61h-1.64v-2.6h6.77v2.56h-1.62l2.51 7a6.38 6.38 0 0 1 .3 1.43h.1a7.15 7.15 0 0 1 .38-1.43l2.48-7h-1.59v-2.56h6.5v2.56h-1.56l-5.08 13a5.57 5.57 0 0 1 -5.45 3.88 6.32 6.32 0 0 1 -3.35-.94l1.11-2.51a3.55 3.55 0 0 0 2.06.68z"/><path d="m511 96.53h2v-8.07a.53.53 0 0 0 -.6-.57h-1.54v-2.56h3.59c1.22 0 1.81.56 1.81 1.54v.62a4.14 4.14 0 0 1 0 .59 5.54 5.54 0 0 1 4.74-3.08 3.61 3.61 0 0 1 3.83 3h.06a5.35 5.35 0 0 1 4.77-3c2.78 0 4.43 1.62 4.43 5.24v6.29h2v2.56h-5.43v-8.2c0-1.57-.29-2.76-1.89-2.76-2.35 0-3.51 2.35-3.51 4.89v3.51h2v2.56h-5.4v-8.2c0-1.49-.24-2.76-1.86-2.76-2.43 0-3.54 2.57-3.54 5.05v3.35h2v2.56h-7.46z"/><path d="m544.34 85c4 0 6.13 2.89 6.13 6.54 0 .4-.08 1.16-.08 1.16h-9.53a4 4 0 0 0 4.14 3.83 6.93 6.93 0 0 0 4-1.46l1.33 2.43a8.77 8.77 0 0 1 -5.56 1.92 7.05 7.05 0 0 1 -7.4-7.21c-.02-4.21 2.84-7.21 6.97-7.21zm2.59 5.67c0-1.89-1.21-3-2.67-3a3.35 3.35 0 0 0 -3.32 3z"/><path d="m552.44 96.53h2v-8a.54.54 0 0 0 -.59-.6h-1.54v-2.6h3.62c1.21 0 1.78.56 1.78 1.54v.62a3.47 3.47 0 0 1 -.06.59h.06a5.52 5.52 0 0 1 5.07-3.08c2.94 0 4.62 1.6 4.62 5.24v6.29h2v2.56h-5.4v-8.15c0-1.67-.46-2.81-2.19-2.81-2.48 0-3.94 2.38-3.94 4.78v3.62h2v2.56h-7.4z"/><path d="m572.4 87.89h-2.11v-2.56h2.21v-3.75h3.32v3.75h3.18v2.56h-3.14v5.81a2.48 2.48 0 0 0 2.76 2.67 5.53 5.53 0 0 0 .62 0v2.81a6.4 6.4 0 0 1 -1.06.08c-1.94 0-5.74-.57-5.74-5.18z"/><path d="m236.36 51.09c0-.49 0-1 0-1.47a49.5 49.5 0 0 0 -99 0v1.47l49.54 20.09z" fill="#c3002f"/><path d="m186.9 74.18-.52-.22-48.76-19.8a49.49 49.49 0 0 0 98.56 0z" fill="#001970"/><g fill="#fff"><path d="m171.13 77.36a5.61 5.61 0 0 1 4 1.55.32.32 0 0 1 0 .47l-1.3 1.35a.31.31 0 0 1 -.42 0 3.4 3.4 0 0 0 -2.25-.85 3.41 3.41 0 0 0 0 6.81 3.5 3.5 0 0 0 2.23-.8.32.32 0 0 1 .43 0l1.3 1.38a.34.34 0 0 1 0 .45 5.74 5.74 0 0 1 -4.05 1.62 6 6 0 1 1 0-12z"/><path d="m178.18 77.85a.31.31 0 0 1 .3-.32h4.06a5.83 5.83 0 1 1 0 11.66h-4.06a.31.31 0 0 1 -.3-.31zm4.19 8.88a3.38 3.38 0 0 0 0-6.75h-1.6v6.75z"/><path d="m191.42 77.85a.32.32 0 0 1 .32-.32h2a.33.33 0 0 1 .32.32v8.89h4a.32.32 0 0 1 .32.32v1.82a.31.31 0 0 1 -.32.31h-6.26a.32.32 0 0 1 -.32-.31z"/><path d="m200.94 77.85a.31.31 0 0 1 .31-.32h6.9a.32.32 0 0 1 .32.32v1.81a.32.32 0 0 1 -.32.32h-4.61v2.02h3.8a.33.33 0 0 1 .31.32v1.82a.31.31 0 0 1 -.31.31h-3.8v2.25h4.61a.32.32 0 0 1 .32.32v1.82a.31.31 0 0 1 -.32.31h-6.9a.31.31 0 0 1 -.31-.31z"/><path d="m190.04 16.24-5.33 10.49-3.5 1.32v-13.81l4.68-1.98z"/><path d="m178.45 16.86v12.22l-7.23 2.71v-10.96z"/><path d="m168.47 24.33v8.51l-4.08 1.52v-8.05z"/><path d="m192.44 40.14a4.63 4.63 0 0 1 -.14 1.17 5.54 5.54 0 0 1 -10.82 0 4.63 4.63 0 0 1 -.14-1.17h-17v2.22a.49.49 0 0 0 .44.47l5.1 1a16.9 16.9 0 0 0 2.4 5.73l-2.62 3.87a.49.49 0 0 0 0 .66l3.14 3.14a.5.5 0 0 0 .63 0l3.89-2.62a17.07 17.07 0 0 0 5.82 2.44l1 5.1a.5.5 0 0 0 .48.44h4.44a.5.5 0 0 0 .48-.44l1-5.1a17.15 17.15 0 0 0 5.74-2.4l3.85 2.62a.5.5 0 0 0 .65 0l3.22-3.12a.49.49 0 0 0 0-.66l-2.6-3.85a17.6 17.6 0 0 0 2.44-5.81l5.1-1a.49.49 0 0 0 .44-.47v-2.22z"/><path d="m209.39 37.38h-45l22.21-8.32 5.55-10.91 1.84-3.61 5.1 13.45 3.97-7.25z"/></g><path d="m284.06 6a8 8 0 0 1 5.36 2 .7.7 0 0 0 1 0l3.1-3.23a.73.73 0 0 0 0-1.11 13.36 13.36 0 0 0 -9.66-3.66 14.32 14.32 0 1 0 0 28.63 13.61 13.61 0 0 0 9.66-3.86.79.79 0 0 0 0-1.07l-3.1-3.3a.79.79 0 0 0 -1 0 8.34 8.34 0 0 1 -5.32 1.91 7.88 7.88 0 0 1 -7.84-8.07 7.93 7.93 0 0 1 7.8-8.24"/><path d="m319.24 0a14.25 14.25 0 0 0 -14.24 14.36 14.3 14.3 0 0 0 28.59 0 14.3 14.3 0 0 0 -14.35-14.36m0 22.28a8 8 0 1 1 7.95-7.92 8 8 0 0 1 -7.95 7.92"/><path d="m362.66 22.39h-9.59v-21.23a.78.78 0 0 0 -.75-.76h-4.74a.74.74 0 0 0 -.75.76v26.32a.74.74 0 0 0 .75.75h15.08a.75.75 0 0 0 .76-.75v-4.33a.76.76 0 0 0 -.76-.76"/><path d="m388.63 0a14.25 14.25 0 0 0 -14.27 14.36 14.3 14.3 0 0 0 28.59 0 14.29 14.29 0 0 0 -14.32-14.36m0 22.28a8 8 0 1 1 8-7.92 8 8 0 0 1 -8 7.92"/><path d="m432.46 17c3.46-1.4 5.88-4.34 5.88-8a8.64 8.64 0 0 0 -8.66-8.6h-11.89a.75.75 0 0 0 -.76.76v26.32a.74.74 0 0 0 .76.75h4.73a.79.79 0 0 0 .76-.75v-10.14h2.72l5.68 10.54a.72.72 0 0 0 .64.35h5.28a.75.75 0 0 0 .68-1.15zm-3.3-4.7h-5.88v-6.21h5.88a3 3 0 0 1 3 3 3.19 3.19 0 0 1 -3 3.18"/><path d="m502.51.4h-9.7a.75.75 0 0 0 -.72.76v26.32a.74.74 0 0 0 .72.75h9.7a13.92 13.92 0 1 0 0-27.83m-.4 22h-3.82v-16.15h3.82a7.73 7.73 0 0 1 7.75 8 7.75 7.75 0 0 1 -7.75 8.08"/><path d="m543.2 0a14.25 14.25 0 0 0 -14.28 14.36 14.3 14.3 0 0 0 28.59 0 14.29 14.29 0 0 0 -14.31-14.36m0 22.28a8 8 0 1 1 7.95-7.92 8 8 0 0 1 -7.95 7.92"/><path d="m465.81.44a.8.8 0 0 0 -.67-.44h-.4a.81.81 0 0 0 -.68.44l-12.45 26.75a.7.7 0 0 0 .68 1h4.37a1.29 1.29 0 0 0 1.43-.95l1.43-3.18h10.84l1.42 3.14c.41.86.57 1 1.39 1h4.41a.7.7 0 0 0 .68-1zm-4.51 18.94 3.62-8.33 3.65 8.33z"/><path d="m252.2.12h1.3v99h-1.3z"/><path d="m43.48 80.64a52.32 52.32 0 0 1 -4.14-6l-.22-.32c-.91-1.65-1.77-3.33-2.53-5.07-.21-.52-.43-1-.63-1.57a49.56 49.56 0 0 1 -3.36-20.62 48.63 48.63 0 0 1 6.4-21.76 1.39 1.39 0 0 1 .12-.32c1.06-1.7 2.14-3.37 3.34-5-.55-1-1.14-2-1.78-3.19-3.92-7-5.9-10.34-9.84-16.81-3.95 6.62-5.92 10.02-9.84 17.12-3.93 6.9-5.88 10.41-9.73 17.77a62.7 62.7 0 0 1 8-1.64c-.82 2-1.23 3-2.05 5.06-4.66 9.25-9.1 18.71-13.28 28.13a64.71 64.71 0 0 1 8.31-2.55c-4.25 10.21-8.25 20.42-12.25 30.73 21.66-7.48 39.36-7.58 61.07-.19a50.9 50.9 0 0 1 -12.52-8.41 48.66 48.66 0 0 1 -5.07-5.36z" fill="#245d38"/><path d="m82.23 25.68a24 24 0 0 0 -18.53 8.69l-.12.14a24.11 24.11 0 0 0 -5.48 15.3v.68l14.63-12.75 10 8.71 10-8.71 13.66 11.92a23.65 23.65 0 0 0 -1.86-9.13 24 24 0 0 0 -22.3-14.85z" fill="#ffd100"/><path d="m39 25.3a48.63 48.63 0 0 0 -6.4 21.76 49.56 49.56 0 0 0 3.4 20.62c.2.53.42 1 .63 1.57l18.88-16.49c0-.33-.08-.67-.11-1 0-.6-.07-1.23-.07-1.94a26.9 26.9 0 0 1 6.15-17.12l.12-.14a26.88 26.88 0 0 1 45.45 6.9q10-4.06 20-8.07c.44-.19.57-.32.34-.83-.81-1.89-1.76-3.76-2.75-5.6-.09-.16-.19-.31-.28-.44q-13.51-21.71-39-24.08a45.06 45.06 0 0 0 -14.49 1.13 49 49 0 0 0 -27.79 17.63c-.22.26-.41.54-.62.81-1.2 1.6-2.28 3.27-3.34 5a1.39 1.39 0 0 0 -.12.29z" fill="#c3002f"/><path d="m72.73 37.74-14.61 12.75c0 .36 0 .71.05 1a24.09 24.09 0 0 0 3.4 10.74c.41.67.76 1.18 1.09 1.64l20-17.47z" fill="#7a853b"/><path d="m59.23 63.78a27.07 27.07 0 0 1 -3.72-11l-18.92 16.47c.76 1.74 1.62 3.42 2.53 5.07l.22.32a52.32 52.32 0 0 0 4.14 6l.73-.63 16.36-14.26-.08-.1c-.39-.53-.79-1.13-1.26-1.87z" fill="#6d3a5d"/><path d="m126.8 67.81q-9.81-4-19.63-7.92a26.53 26.53 0 0 1 -2.81 5.21 26.89 26.89 0 0 1 -43.78.64l-16.37 14.26-.73.63a48.66 48.66 0 0 0 5.07 5.37 50.9 50.9 0 0 0 12.52 8.38 49.57 49.57 0 0 0 19.54 4.62 46.45 46.45 0 0 0 15-1.92 49.26 49.26 0 0 0 24.1-15.7c.43-.5.84-1 1.25-1.55a57.42 57.42 0 0 0 3.68-5.47 51.84 51.84 0 0 0 2.63-5.36c.06-.19.12-.31.16-.41l.06-.16-.06-.25c-.1-.18-.29-.18-.63-.37z" fill="#001970"/><path d="m82.71 46.45 19.16 16.71.28.24a22.89 22.89 0 0 0 2.44-4.54 23.84 23.84 0 0 0 1.76-9v-.15l-13.66-11.97z" fill="#35647e"/><path d="m82.71 46.45-20 17.47.07.09a24.11 24.11 0 0 0 39.34-.48l.08-.13-.28-.24z" fill="#001970"/><path d="m111.4 93.94h-1.06a.13.13 0 0 1 -.13-.13v-.57a.13.13 0 0 1 .13-.13h3a.13.13 0 0 1 .14.13v.57a.13.13 0 0 1 -.14.13h-1.06v3.9a.13.13 0 0 1 -.13.13h-.64a.14.14 0 0 1 -.14-.13z"/><path d="m115.35 93.15a.11.11 0 0 1 .12-.11h.11a.13.13 0 0 1 .12.07l1.53 3.28 1.53-3.28a.12.12 0 0 1 .12-.07h.12a.11.11 0 0 1 .12.11l.82 4.66a.12.12 0 0 1 -.13.16h-.63a.15.15 0 0 1 -.13-.1l-.41-2.63-1.22 2.76a.13.13 0 0 1 -.12.07h-.13a.13.13 0 0 1 -.12-.07l-1.22-2.73-.4 2.63a.13.13 0 0 1 -.12.1h-.63c-.09 0-.14-.06-.13-.16z"/></svg>